<?xml version="1.0" encoding="UTF-8" standalone="no"?>
<svg
   xmlns:dc="http://purl.org/dc/elements/1.1/"
   xmlns:cc="http://creativecommons.org/ns#"
   xmlns:rdf="http://www.w3.org/1999/02/22-rdf-syntax-ns#"
   xmlns:svg="http://www.w3.org/2000/svg"
   xmlns="http://www.w3.org/2000/svg"
   width="21"
   height="21"
   viewBox="0 0 21 21"
   id="svg2"
   version="1.1">
  <defs
     id="defs4" />
  <metadata
     id="metadata7">
    <rdf:RDF>
      <cc:Work
         rdf:about="">
        <dc:format>image/svg+xml</dc:format>
        <dc:type
           rdf:resource="http://purl.org/dc/dcmitype/StillImage" />
        <dc:title></dc:title>
      </cc:Work>
    </rdf:RDF>
  </metadata>
  <path
     d="m 17,7 -1,0 0,1 1,0 z m -9,4 0,-1 -1,0 0,1 z m 3,3 0,-1 -1,0 0,1 z m 1,-1 0,-1 -1,0 0,1 z m -3,-1 0,-1 -1,0 0,1 z m 1,1 0,-1 -1,0 0,1 z m 3,-2 -1,0 0,1 1,0 z m 1,-1 -1,0 0,1 1,0 z m 1,-1 -1,0 0,1 1,0 z m 1,-1 -1,0 0,1 1,0 z m -1,7 1,0 0,-4 -1,0 z m -10,0 0,1 10,0 0,-1 z M 5,7 4,7 4,15 5,15 Z M 5,6 5,7 15,7 15,6 Z"
     style="color:#000000;display:inline;overflow:visible;visibility:visible;fill:#eee8d5;fill-opacity:1;fill-rule:evenodd;stroke:none;stroke-width:0.35433072;marker:none;enable-background:accumulate"
     id="path3412" />
</svg>
