<?xml version="1.0" encoding="UTF-8" standalone="no"?>
<svg
   xmlns:dc="http://purl.org/dc/elements/1.1/"
   xmlns:cc="http://creativecommons.org/ns#"
   xmlns:rdf="http://www.w3.org/1999/02/22-rdf-syntax-ns#"
   xmlns:svg="http://www.w3.org/2000/svg"
   xmlns="http://www.w3.org/2000/svg"
   version="1.1"
   id="svg2"
   viewBox="0 0 21 21"
   height="21"
   width="21">
  <defs
     id="defs4" />
  <metadata
     id="metadata7">
    <rdf:RDF>
      <cc:Work
         rdf:about="">
        <dc:format>image/svg+xml</dc:format>
        <dc:type
           rdf:resource="http://purl.org/dc/dcmitype/StillImage" />
        <dc:title />
      </cc:Work>
    </rdf:RDF>
  </metadata>
  <g
     transform="translate(0,-1031.3622)"
     id="layer1">
    <path
       d="m 17,1038.3622 -1,0 0,1 1,0 z m -9,4 0,-1 -1,0 0,1 z m 3,3 0,-1 -1,0 0,1 z m 1,-1 0,-1 -1,0 0,1 z m -3,-1 0,-1 -1,0 0,1 z m 1,1 0,-1 -1,0 0,1 z m 3,-2 -1,0 0,1 1,0 z m 1,-1 -1,0 0,1 1,0 z m 1,-1 -1,0 0,1 1,0 z m 1,-1 -1,0 0,1 1,0 z m -1,7 1,0 0,-4 -1,0 z m -10,0 0,1 10,0 0,-1 z m 0,-8 -1,0 0,8 1,0 z m 0,-1 0,1 10,0 0,-1 z"
       style="color:#000000;display:inline;overflow:visible;visibility:visible;fill:#eee8d5;fill-opacity:1;fill-rule:evenodd;stroke:none;stroke-width:0.35433072;marker:none;enable-background:accumulate"
       id="path3412" />
  </g>
</svg>
