<?xml version="1.0" encoding="UTF-8" standalone="no"?>
<svg
   xmlns:dc="http://purl.org/dc/elements/1.1/"
   xmlns:cc="http://creativecommons.org/ns#"
   xmlns:rdf="http://www.w3.org/1999/02/22-rdf-syntax-ns#"
   xmlns:svg="http://www.w3.org/2000/svg"
   xmlns="http://www.w3.org/2000/svg"
   version="1.1"
   id="svg2"
   viewBox="0 0 18 18"
   height="18"
   width="18">
  <defs
     id="defs4" />
  <metadata
     id="metadata7">
    <rdf:RDF>
      <cc:Work
         rdf:about="">
        <dc:format>image/svg+xml</dc:format>
        <dc:type
           rdf:resource="http://purl.org/dc/dcmitype/StillImage" />
        <dc:title></dc:title>
      </cc:Work>
    </rdf:RDF>
  </metadata>
  <path
     id="path12127"
     d="M 2 2 L 2 5 L 3 5 L 3 4 L 4 4 L 4 3 L 5 3 L 5 2 L 2 2 z M 4 4 L 4 5 L 5 5 L 5 4 L 4 4 z M 5 5 L 5 6 L 6 6 L 6 5 L 5 5 z M 6 6 L 6 7 L 7 7 L 7 6 L 6 6 z M 7 7 L 7 8 L 8 8 L 8 7 L 7 7 z M 8 8 L 8 10 L 10 10 L 10 8 L 8 8 z M 10 8 L 11 8 L 11 7 L 10 7 L 10 8 z M 11 7 L 12 7 L 12 6 L 11 6 L 11 7 z M 12 6 L 13 6 L 13 5 L 12 5 L 12 6 z M 13 5 L 14 5 L 14 4 L 13 4 L 13 5 z M 14 4 L 15 4 L 15 5 L 16 5 L 16 2 L 13 2 L 13 3 L 14 3 L 14 4 z M 10 10 L 10 11 L 11 11 L 11 10 L 10 10 z M 11 11 L 11 12 L 12 12 L 12 11 L 11 11 z M 12 12 L 12 13 L 13 13 L 13 12 L 12 12 z M 13 13 L 13 14 L 14 14 L 14 13 L 13 13 z M 14 14 L 14 15 L 13 15 L 13 16 L 16 16 L 16 13 L 15 13 L 15 14 L 14 14 z M 8 10 L 7 10 L 7 11 L 8 11 L 8 10 z M 7 11 L 6 11 L 6 12 L 7 12 L 7 11 z M 6 12 L 5 12 L 5 13 L 6 13 L 6 12 z M 5 13 L 4 13 L 4 14 L 5 14 L 5 13 z M 4 14 L 3 14 L 3 13 L 2 13 L 2 16 L 5 16 L 5 15 L 4 15 L 4 14 z "
     style="color:#000000;clip-rule:nonzero;display:inline;overflow:visible;visibility:visible;opacity:1;isolation:auto;mix-blend-mode:normal;color-interpolation:sRGB;color-interpolation-filters:linearRGB;solid-color:#000000;solid-opacity:1;fill:#eee8d5;fill-opacity:1;fill-rule:evenodd;stroke:none;stroke-width:0.35433072;stroke-linecap:butt;stroke-linejoin:round;stroke-miterlimit:4;stroke-dasharray:none;stroke-dashoffset:0;stroke-opacity:1;marker:none;color-rendering:auto;image-rendering:auto;shape-rendering:auto;text-rendering:auto;enable-background:accumulate" />
</svg>
