<?xml version="1.0" encoding="UTF-8" standalone="no"?>
<svg
   xmlns:dc="http://purl.org/dc/elements/1.1/"
   xmlns:cc="http://creativecommons.org/ns#"
   xmlns:rdf="http://www.w3.org/1999/02/22-rdf-syntax-ns#"
   xmlns:svg="http://www.w3.org/2000/svg"
   xmlns="http://www.w3.org/2000/svg"
   viewBox="0 0 21 21"
   height="21"
   width="21"
   version="1.1"
   id="svg8312">
  <metadata
     id="metadata8318">
    <rdf:RDF>
      <cc:Work
         rdf:about="">
        <dc:format>image/svg+xml</dc:format>
        <dc:type
           rdf:resource="http://purl.org/dc/dcmitype/StillImage" />
        <dc:title />
      </cc:Work>
    </rdf:RDF>
  </metadata>
  <defs
     id="defs8316" />
  <path
     id="path3511"
     d="M 8 6 L 8 7 L 9 7 L 9 6 L 8 6 z M 9 7 L 9 8 L 10 8 L 10 7 L 9 7 z M 10 8 L 10 9 L 11 9 L 11 8 L 10 8 z M 11 9 L 11 10 L 12 10 L 12 9 L 11 9 z M 12 10 L 12 11 L 13 11 L 13 10 L 12 10 z M 12 11 L 11 11 L 11 12 L 12 12 L 12 11 z M 11 12 L 10 12 L 10 13 L 11 13 L 11 12 z M 10 13 L 9 13 L 9 14 L 10 14 L 10 13 z M 9 14 L 8 14 L 8 15 L 9 15 L 9 14 z "
     style="color:#000000;fill:#eee8d5;fill-opacity:1;fill-rule:evenodd;stroke:none;stroke-width:0.354;marker:none;visibility:visible;display:inline;overflow:visible;enable-background:accumulate" />
</svg>
