<?xml version="1.0" encoding="UTF-8" standalone="no"?>
<svg
   xmlns:dc="http://purl.org/dc/elements/1.1/"
   xmlns:cc="http://creativecommons.org/ns#"
   xmlns:rdf="http://www.w3.org/1999/02/22-rdf-syntax-ns#"
   xmlns:svg="http://www.w3.org/2000/svg"
   xmlns="http://www.w3.org/2000/svg"
   version="1.1"
   id="svg2"
   viewBox="0 0 21 21"
   height="21"
   width="21">
  <defs
     id="defs4" />
  <metadata
     id="metadata7">
    <rdf:RDF>
      <cc:Work
         rdf:about="">
        <dc:format>image/svg+xml</dc:format>
        <dc:type
           rdf:resource="http://purl.org/dc/dcmitype/StillImage" />
        <dc:title></dc:title>
      </cc:Work>
    </rdf:RDF>
  </metadata>
  <path
     id="path3070"
     d="M 2,2 2,19 19,19 19,2 2,2 Z m 1,1 8,0 0,4 -8,0 0,-4 z m 9,0 6,0 0,7 -6,0 0,-7 z m -9,5 8,0 0,2 0,1 0,2 -8,0 0,-5 z m 9,3 6,0 0,7 -6,0 0,-7 z m -9,3 8,0 0,4 -8,0 0,-4 z"
     style="color:#000000;display:inline;overflow:visible;visibility:visible;fill:#eee8d5;fill-opacity:1;fill-rule:evenodd;stroke:none;stroke-width:0.354;marker:none;enable-background:accumulate" />
</svg>
