<?xml version="1.0" encoding="UTF-8" standalone="no"?>
<svg
   xmlns:dc="http://purl.org/dc/elements/1.1/"
   xmlns:cc="http://creativecommons.org/ns#"
   xmlns:rdf="http://www.w3.org/1999/02/22-rdf-syntax-ns#"
   xmlns:svg="http://www.w3.org/2000/svg"
   xmlns="http://www.w3.org/2000/svg"
   version="1.1"
   id="svg2"
   viewBox="0 0 21 21"
   height="21"
   width="21">
  <defs
     id="defs4" />
  <metadata
     id="metadata7">
    <rdf:RDF>
      <cc:Work
         rdf:about="">
        <dc:format>image/svg+xml</dc:format>
        <dc:type
           rdf:resource="http://purl.org/dc/dcmitype/StillImage" />
        <dc:title />
      </cc:Work>
    </rdf:RDF>
  </metadata>
  <g
     transform="translate(0,-1031.3622)"
     id="layer1">
    <path
       id="path26355"
       transform="translate(0,1031.3622)"
       d="M 3,3 3,7 4,7 4,5 5,5 5,4 7,4 7,3 Z M 5,5 5,6 6,6 6,5 Z M 6,6 6,7 7,7 7,6 Z M 7,7 7,8 8,8 8,7 Z M 8,8 8,9 9,9 9,8 Z m 1,1 0,1 1,0 0,-1 z m 1,1 0,1 1,0 0,-1 z m 1,0 1,0 0,-1 -1,0 z m 1,-1 1,0 0,-1 -1,0 z m 1,-1 1,0 0,-1 -1,0 z m 1,-1 1,0 0,-1 -1,0 z m 1,-1 1,0 0,-1 -1,0 z m 1,-1 1,0 0,2 1,0 0,-4 -4,0 0,1 2,0 z m -5,6 0,1 1,0 0,-1 z m 1,1 0,1 1,0 0,-1 z m 1,1 0,1 1,0 0,-1 z m 1,1 0,1 1,0 0,-1 z m 1,1 0,1 1,0 0,-1 z m 1,1 0,1 -2,0 0,1 4,0 0,-4 -1,0 0,2 z m -6,-5 -1,0 0,1 1,0 z m -1,1 -1,0 0,1 1,0 z m -1,1 -1,0 0,1 1,0 z m -1,1 -1,0 0,1 1,0 z m -1,1 -1,0 0,1 1,0 z m -1,1 -1,0 0,-2 -1,0 0,4 4,0 0,-1 -2,0 z"
       style="color:#000000;clip-rule:nonzero;display:inline;overflow:visible;visibility:visible;opacity:1;isolation:auto;mix-blend-mode:normal;color-interpolation:sRGB;color-interpolation-filters:linearRGB;solid-color:#000000;solid-opacity:1;fill:#eee8d5;fill-opacity:1;fill-rule:evenodd;stroke:none;stroke-width:0.35433072;stroke-linecap:butt;stroke-linejoin:round;stroke-miterlimit:4;stroke-dasharray:none;stroke-dashoffset:0;stroke-opacity:1;marker:none;color-rendering:auto;image-rendering:auto;shape-rendering:auto;text-rendering:auto;enable-background:accumulate" />
  </g>
</svg>
