<?xml version="1.0" encoding="UTF-8" standalone="no"?>
<svg
   xmlns:dc="http://purl.org/dc/elements/1.1/"
   xmlns:cc="http://creativecommons.org/ns#"
   xmlns:rdf="http://www.w3.org/1999/02/22-rdf-syntax-ns#"
   xmlns:svg="http://www.w3.org/2000/svg"
   xmlns="http://www.w3.org/2000/svg"
   version="1.1"
   id="svg2"
   viewBox="0 0 12 18"
   height="18"
   width="12">
  <defs
     id="defs4" />
  <metadata
     id="metadata7">
    <rdf:RDF>
      <cc:Work
         rdf:about="">
        <dc:format>image/svg+xml</dc:format>
        <dc:type
           rdf:resource="http://purl.org/dc/dcmitype/StillImage" />
        <dc:title />
      </cc:Work>
    </rdf:RDF>
  </metadata>
  <g
     transform="translate(0,-1034.3622)"
     id="layer1">
    <path
       id="path36251"
       transform="translate(0,1034.3622)"
       d="m 9,5 0,1 -2,0 0,1 2,0 0,1 1,0 0,-1 1,0 0,-1 -1,0 0,-1 z M 7,7 6,7 6,9 7,9 7,8 Z m -1,2 -1,0 0,1 1,0 z m 0,1 0,2 1,0 0,-2 z m 1,2 0,1 2,0 0,1 1,0 0,-1 1,0 0,-1 -1,0 0,-1 -1,0 0,1 z m -2,-2 -1,0 0,2 1,0 z m -1,2 -3,0 0,1 3,0 z M 5,9 5,7 4,7 4,9 Z M 4,7 4,6 1,6 1,7 Z"
       style="color:#000000;clip-rule:nonzero;display:inline;overflow:visible;visibility:visible;opacity:1;isolation:auto;mix-blend-mode:normal;color-interpolation:sRGB;color-interpolation-filters:linearRGB;solid-color:#000000;solid-opacity:1;fill:#eee8d5;fill-opacity:1;fill-rule:evenodd;stroke:none;stroke-width:0.354;stroke-linecap:butt;stroke-linejoin:round;stroke-miterlimit:4;stroke-dasharray:none;stroke-dashoffset:0;stroke-opacity:1;marker:none;color-rendering:auto;image-rendering:auto;shape-rendering:auto;text-rendering:auto;enable-background:accumulate" />
  </g>
</svg>
